<svg id="Layer_1" data-name="Layer 1" xmlns="http://www.w3.org/2000/svg" viewBox="0 0 83.73 83.73"><defs><style>.cls-1{fill:#4683c4;}</style></defs><path class="cls-1" d="M27.75,18.59a10.06,10.06,0,0,1,1.37.27c1.29.45,2.57.92,3.82,1.46a1.85,1.85,0,0,0,1.22.13,25,25,0,0,1,15.65,1,15.36,15.36,0,0,1,7.68,6.19,11.64,11.64,0,0,1,.56,11.1A19.3,19.3,0,0,1,55.5,43l-.22.31a6.57,6.57,0,0,1,2,4.1,6.81,6.81,0,0,1-.15,1.12,14.52,14.52,0,0,1-8.4-8.14c-.25.81,1.36,3.41,3.06,5.06a13.1,13.1,0,0,0,5,3.22v.17a6.86,6.86,0,0,1-1.27.07,10.24,10.24,0,0,1-3.77-1.55,2.76,2.76,0,0,0-2.44-.27c-2.56.8-4.89.05-7.22-1.32a7.15,7.15,0,0,0,3.37-2.07l-2.14-1.56a8.09,8.09,0,0,1-11.05,1.36,8,8,0,0,0,4.91-4.13c-.53-.24-1-.52-1.56-.7a11.83,11.83,0,0,0-6.41-.22,13.93,13.93,0,0,0-6.58,3.24,10,10,0,0,0-3.06,11,17.75,17.75,0,0,0,3.11,6,24.49,24.49,0,0,0,1.85,1.82,18.79,18.79,0,0,1,1.79,2.09c.59.83,1.06,1.75,1.55,2.58V55.05a42.37,42.37,0,0,1,4.43.26c1.65.27,2.19,1.83,2.06,3.48-.08,1-.31,1.36-1.26,2.28a3.79,3.79,0,0,1,1,5,2.38,2.38,0,0,1-1.94,1.34c-1.41.08-2.83,0-4.29,0v-.86c-.08,0-.12,0-.13,0-.48.87-.55.89-1.25.19A11.93,11.93,0,0,0,20,63.72l-.76-.13c-.24-1.1-.38-1.33-1.06-1.74a2.38,2.38,0,0,1-1.59,1c-1.06.34-2.12.63-3.18,1a8.69,8.69,0,0,0-2.91,1.55V65c.91-3.77,3.84-5.9,6.6-8.12a23.28,23.28,0,0,1-2.63-18c1.48-6.39,5.26-11.17,10.78-14.69-1.54-1.63-3.41-1.84-5.47-1.54.08-.14.11-.22.16-.29a8.77,8.77,0,0,1,5.31-3.55l1.06-.22Zm1.77,47.25h1.92a1.46,1.46,0,0,0,1.5-1.24,4.65,4.65,0,0,0,0-1.49A1.25,1.25,0,0,0,31.82,62c-.75-.06-1.52,0-2.3,0Zm0-5.51c.75,0,1.41,0,2.06,0a1.14,1.14,0,0,0,1.09-.91,5.5,5.5,0,0,0,0-1.67,1,1,0,0,0-.94-.85c-.72-.06-1.44,0-2.2,0,0,.16,0,.31,0,.47Zm17-30.57c-.13,1.95,2.28,4.34,3.7,3.64C47.85,33.23,47.13,31.53,46.46,29.76Z"/><path class="cls-1" d="M73.31,67.69c-1.7-.42-2.3-1.66-2.41-3.27a4.54,4.54,0,0,1,.53-2.75,2.49,2.49,0,0,1,3.76-.73l.28.19V57.6h1.59v9.88a10.67,10.67,0,0,1-1.13,0c-.11,0-.24-.16-.32-.27a.81.81,0,0,1-.07-.27l-1.6.71Zm2.19-3.64V63a1.22,1.22,0,0,0-.9-1.29,1.51,1.51,0,0,0-1.66.39,3.71,3.71,0,0,0,0,3.79,1.52,1.52,0,0,0,1.7.43A1.29,1.29,0,0,0,75.5,65Z"/><path class="cls-1" d="M47.2,67.69a2.13,2.13,0,0,0-.33-.11A2.92,2.92,0,0,1,44.5,65.3,4.56,4.56,0,0,1,44.84,62a3.11,3.11,0,0,1,3.37-1.51A2.72,2.72,0,0,1,50.42,63c.07.47.09,1,.14,1.51H46a1.64,1.64,0,0,0,.82,1.75c.81.48,1.75.29,2.77-.59l.76.72a2.71,2.71,0,0,1-1.79,1.22l-.44.13Zm1.74-4.31a1.42,1.42,0,0,0-1.33-1.75A1.56,1.56,0,0,0,46,63.38Z"/><path class="cls-1" d="M39.82,67.69C38.3,67.1,38,66.6,38,64.94V61.09c0-.17,0-.34,0-.54h1.47c0,.18,0,.37,0,.55,0,1.32,0,2.63,0,3.95,0,.76.22,1.15.71,1.31a1.73,1.73,0,0,0,1.8-.48,1.32,1.32,0,0,0,.21-.72c0-1.33,0-2.67,0-4v-.6H43.7c0,.17,0,.35,0,.53,0,1.94,0,3.88,0,5.82,0,.49-.11.7-.62.64a4.65,4.65,0,0,0-.75,0L42.23,67l-1.47.68Z"/><path class="cls-1" d="M58.76,55.25h2.05V67.5H59.34V58.33l0,0c-.19.62-.38,1.23-.56,1.84-.68,2.31-1.38,4.61-2,6.93-.12.46-.38.47-.75.48a.58.58,0,0,1-.69-.49c-.8-2.79-1.63-5.58-2.45-8.37,0-.14-.09-.28-.17-.52V67.5H51.17V55.25h2.08l2.69,9.31.13,0Z"/><path class="cls-1" d="M65.9,60.55l.12.75a2.8,2.8,0,0,1,2-.9c1.26,0,2,.51,2.14,1.77.12,1.76,0,3.55,0,5.34H68.75c0-.93,0-1.83,0-2.72,0-.61,0-1.22,0-1.82,0-.94-.4-1.33-1.27-1.33A1.35,1.35,0,0,0,66,63V67.5h-1.5v-7Z"/><path class="cls-1" d="M35.5,57.59H37V67.5H35.5Z"/><path class="cls-1" d="M62,60.55H63.5v7H62Z"/><path class="cls-1" d="M62.76,59.45a.79.79,0,0,1-.85-.79.82.82,0,0,1,.87-.83.78.78,0,0,1,.86.83A.76.76,0,0,1,62.76,59.45Z"/></svg>