<svg id="Layer_1" data-name="Layer 1" xmlns="http://www.w3.org/2000/svg" xmlns:xlink="http://www.w3.org/1999/xlink" viewBox="0 0 163.14 176.72"><defs><style>.cls-1{fill:none;}.cls-2{clip-path:url(#clip-path);}.cls-3{fill:url(#linear-gradient);}.cls-4{fill:url(#linear-gradient-2);}.cls-5{fill:url(#linear-gradient-3);}.cls-6{fill:url(#linear-gradient-4);}.cls-7{fill:url(#linear-gradient-5);}.cls-8{fill:url(#linear-gradient-6);}</style><clipPath id="clip-path"><rect class="cls-1" x="-183.04" width="163.14" height="176.72"/></clipPath><linearGradient id="linear-gradient" x1="-423.23" y1="-7761.53" x2="-401.91" y2="-7761.53" gradientTransform="matrix(-0.29, 0.96, -0.96, -0.29, -7566.7, -1687.25)" gradientUnits="userSpaceOnUse"><stop offset="0" stop-color="#b58c5c"/><stop offset="0.08" stop-color="#bc9462"/><stop offset="0.51" stop-color="#e4c083"/><stop offset="1" stop-color="#b58c5c"/></linearGradient><linearGradient id="linear-gradient-2" x1="-1361.47" y1="-7738.6" x2="-1340.15" y2="-7738.6" gradientTransform="translate(-7553.4 -2053.7) rotate(116.19)" xlink:href="#linear-gradient"/><linearGradient id="linear-gradient-3" x1="-2283.01" y1="-7561.2" x2="-2261.69" y2="-7561.2" gradientTransform="matrix(-0.58, 0.81, -0.81, -0.58, -7479.76, -2412.91)" xlink:href="#linear-gradient"/><linearGradient id="linear-gradient-4" x1="-3162.69" y1="-7234.82" x2="-3141.36" y2="-7234.82" gradientTransform="translate(-7348.34 -2756.16) rotate(135.19)" xlink:href="#linear-gradient"/><linearGradient id="linear-gradient-5" x1="-3975.59" y1="-6767.19" x2="-3954.27" y2="-6767.19" gradientTransform="translate(-7160.15 -3072.24) rotate(144.69)" xlink:href="#linear-gradient"/><linearGradient id="linear-gradient-6" x1="-4701.12" y1="-6171.72" x2="-4679.79" y2="-6171.72" gradientTransform="translate(-6924.35 -3352.48) rotate(154.18)" xlink:href="#linear-gradient"/></defs><g id="Graphic_Elements" data-name="Graphic Elements"><g class="cls-2"><path class="cls-3" d="M.78,140.84a.12.12,0,0,1,0,.23l-29.9,13a.13.13,0,0,1-.17-.07.14.14,0,0,1,.07-.16l29.9-13Z"/><path class="cls-4" d="M2.52,146a.14.14,0,0,1,.12.09.13.13,0,0,1-.09.15l-31.64,7.92a.11.11,0,0,1-.15-.09.12.12,0,0,1,.09-.15L2.49,146Z"/><path class="cls-5" d="M3.39,151.28a.11.11,0,0,1,.12.11.12.12,0,0,1-.11.14l-32.51,2.59a.14.14,0,0,1-.14-.12.14.14,0,0,1,.12-.13l32.51-2.59Z"/><path class="cls-6" d="M-29.12,153.87h0l32.49,2.81a.12.12,0,0,1,.12.13.14.14,0,0,1-.14.12l-32.49-2.81a.14.14,0,0,1-.12-.14A.13.13,0,0,1-29.12,153.87Z"/><path class="cls-7" d="M-29.12,153.87h0L2.5,162a.12.12,0,0,1,.08.15.13.13,0,0,1-.15.09l-31.58-8.14a.11.11,0,0,1-.09-.15A.12.12,0,0,1-29.12,153.87Z"/><path class="cls-8" d="M-29.12,153.87h.05L.74,167.11a.13.13,0,0,1,.06.17.12.12,0,0,1-.16.06l-29.81-13.23a.13.13,0,0,1-.06-.17A.12.12,0,0,1-29.12,153.87Z"/></g></g><image width="512" height="512" transform="translate(6.8 18.12) scale(0.29)" xlink:href="C:%5CUsers%5C91770%5CDownloads%5Cwhatsapp.png"/></svg>